<mxfile host="app.diagrams.net" modified="2024-05-02T10:22:53.611Z" agent="Mozilla/5.0 (Windows NT 10.0; Win64; x64) AppleWebKit/537.36 (KHTML, like Gecko) Chrome/124.0.0.0 Safari/537.36" etag="n7RDQAirnAt17UBw3GQO" version="23.1.5" type="device">
  <diagram name="Page-1" id="2YBvvXClWsGukQMizWep">
    <mxGraphModel dx="489" dy="304" grid="1" gridSize="10" guides="1" tooltips="1" connect="1" arrows="1" fold="1" page="1" pageScale="1" pageWidth="850" pageHeight="1100" math="0" shadow="0">
      <root>
        <mxCell id="0" />
        <mxCell id="1" parent="0" />
        <mxCell id="_FRMsnlmzpFDPSuYaDpX-8" value="" style="line;strokeWidth=1;fillColor=none;align=left;verticalAlign=middle;spacingTop=-1;spacingLeft=3;spacingRight=3;rotatable=0;labelPosition=right;points=[];portConstraint=eastwest;strokeColor=inherit;" vertex="1" parent="1">
          <mxGeometry x="30" y="270" width="710" height="8" as="geometry" />
        </mxCell>
        <mxCell id="_FRMsnlmzpFDPSuYaDpX-4" value="Пользователь" style="shape=umlActor;verticalLabelPosition=bottom;verticalAlign=top;html=1;outlineConnect=0;" vertex="1" parent="1">
          <mxGeometry x="72.5" y="50" width="20" height="40" as="geometry" />
        </mxCell>
        <mxCell id="_FRMsnlmzpFDPSuYaDpX-6" value="&lt;b&gt;sd &lt;/b&gt;Взаимодействие админа по одобрению/отклонению заявки&amp;nbsp;" style="shape=umlFrame;whiteSpace=wrap;html=1;pointerEvents=0;width=210;height=30;" vertex="1" parent="1">
          <mxGeometry x="10" y="10" width="740" height="670" as="geometry" />
        </mxCell>
        <mxCell id="_FRMsnlmzpFDPSuYaDpX-7" value="&lt;b&gt;alt&lt;/b&gt;" style="shape=umlFrame;whiteSpace=wrap;html=1;pointerEvents=0;width=40;height=15;" vertex="1" parent="1">
          <mxGeometry x="30" y="130" width="710" height="290" as="geometry" />
        </mxCell>
        <mxCell id="_FRMsnlmzpFDPSuYaDpX-5" value="" style="html=1;points=[];perimeter=orthogonalPerimeter;outlineConnect=0;targetShapes=umlLifeline;portConstraint=eastwest;newEdgeStyle={&quot;edgeStyle&quot;:&quot;elbowEdgeStyle&quot;,&quot;elbow&quot;:&quot;vertical&quot;,&quot;curved&quot;:0,&quot;rounded&quot;:0};" vertex="1" parent="1">
          <mxGeometry x="77.5" y="110" width="10" height="540" as="geometry" />
        </mxCell>
        <mxCell id="aM9ryv3xv72pqoxQDRHE-1" value=":Веб-сервер" style="shape=umlLifeline;perimeter=lifelinePerimeter;whiteSpace=wrap;html=1;container=0;dropTarget=0;collapsible=0;recursiveResize=0;outlineConnect=0;portConstraint=eastwest;newEdgeStyle={&quot;edgeStyle&quot;:&quot;elbowEdgeStyle&quot;,&quot;elbow&quot;:&quot;vertical&quot;,&quot;curved&quot;:0,&quot;rounded&quot;:0};" parent="1" vertex="1">
          <mxGeometry x="180" y="50" width="100" height="620" as="geometry" />
        </mxCell>
        <mxCell id="aM9ryv3xv72pqoxQDRHE-2" value="" style="html=1;points=[];perimeter=orthogonalPerimeter;outlineConnect=0;targetShapes=umlLifeline;portConstraint=eastwest;newEdgeStyle={&quot;edgeStyle&quot;:&quot;elbowEdgeStyle&quot;,&quot;elbow&quot;:&quot;vertical&quot;,&quot;curved&quot;:0,&quot;rounded&quot;:0};" parent="aM9ryv3xv72pqoxQDRHE-1" vertex="1">
          <mxGeometry x="45" y="70" width="10" height="530" as="geometry" />
        </mxCell>
        <mxCell id="_FRMsnlmzpFDPSuYaDpX-54" value="" style="html=1;points=[[0,0,0,0,5],[0,1,0,0,-5],[1,0,0,0,5],[1,1,0,0,-5]];perimeter=orthogonalPerimeter;outlineConnect=0;targetShapes=umlLifeline;portConstraint=eastwest;newEdgeStyle={&quot;curved&quot;:0,&quot;rounded&quot;:0};" vertex="1" parent="aM9ryv3xv72pqoxQDRHE-1">
          <mxGeometry x="49" y="481" width="10" height="40" as="geometry" />
        </mxCell>
        <mxCell id="_FRMsnlmzpFDPSuYaDpX-2" value=":Сервер аутентификации" style="shape=umlLifeline;perimeter=lifelinePerimeter;whiteSpace=wrap;html=1;container=0;dropTarget=0;collapsible=0;recursiveResize=0;outlineConnect=0;portConstraint=eastwest;newEdgeStyle={&quot;edgeStyle&quot;:&quot;elbowEdgeStyle&quot;,&quot;elbow&quot;:&quot;vertical&quot;,&quot;curved&quot;:0,&quot;rounded&quot;:0};" vertex="1" parent="1">
          <mxGeometry x="375" y="50" width="100" height="420" as="geometry" />
        </mxCell>
        <mxCell id="_FRMsnlmzpFDPSuYaDpX-3" value="" style="html=1;points=[];perimeter=orthogonalPerimeter;outlineConnect=0;targetShapes=umlLifeline;portConstraint=eastwest;newEdgeStyle={&quot;edgeStyle&quot;:&quot;elbowEdgeStyle&quot;,&quot;elbow&quot;:&quot;vertical&quot;,&quot;curved&quot;:0,&quot;rounded&quot;:0};" vertex="1" parent="_FRMsnlmzpFDPSuYaDpX-2">
          <mxGeometry x="45" y="180" width="10" height="30" as="geometry" />
        </mxCell>
        <mxCell id="_FRMsnlmzpFDPSuYaDpX-37" value="" style="html=1;points=[];perimeter=orthogonalPerimeter;outlineConnect=0;targetShapes=umlLifeline;portConstraint=eastwest;newEdgeStyle={&quot;edgeStyle&quot;:&quot;elbowEdgeStyle&quot;,&quot;elbow&quot;:&quot;vertical&quot;,&quot;curved&quot;:0,&quot;rounded&quot;:0};" vertex="1" parent="_FRMsnlmzpFDPSuYaDpX-2">
          <mxGeometry x="45" y="320" width="10" height="30" as="geometry" />
        </mxCell>
        <mxCell id="aM9ryv3xv72pqoxQDRHE-5" value=":База данных" style="shape=umlLifeline;perimeter=lifelinePerimeter;whiteSpace=wrap;html=1;container=0;dropTarget=0;collapsible=0;recursiveResize=0;outlineConnect=0;portConstraint=eastwest;newEdgeStyle={&quot;edgeStyle&quot;:&quot;elbowEdgeStyle&quot;,&quot;elbow&quot;:&quot;vertical&quot;,&quot;curved&quot;:0,&quot;rounded&quot;:0};" parent="1" vertex="1">
          <mxGeometry x="580" y="50" width="100" height="620" as="geometry" />
        </mxCell>
        <mxCell id="aM9ryv3xv72pqoxQDRHE-6" value="" style="html=1;points=[];perimeter=orthogonalPerimeter;outlineConnect=0;targetShapes=umlLifeline;portConstraint=eastwest;newEdgeStyle={&quot;edgeStyle&quot;:&quot;elbowEdgeStyle&quot;,&quot;elbow&quot;:&quot;vertical&quot;,&quot;curved&quot;:0,&quot;rounded&quot;:0};" parent="aM9ryv3xv72pqoxQDRHE-5" vertex="1">
          <mxGeometry x="45" y="80" width="10" height="510" as="geometry" />
        </mxCell>
        <mxCell id="_FRMsnlmzpFDPSuYaDpX-16" value="" style="html=1;points=[[0,0,0,0,5],[0,1,0,0,-5],[1,0,0,0,5],[1,1,0,0,-5]];perimeter=orthogonalPerimeter;outlineConnect=0;targetShapes=umlLifeline;portConstraint=eastwest;newEdgeStyle={&quot;curved&quot;:0,&quot;rounded&quot;:0};" vertex="1" parent="aM9ryv3xv72pqoxQDRHE-5">
          <mxGeometry x="50" y="170" width="10" height="40" as="geometry" />
        </mxCell>
        <mxCell id="_FRMsnlmzpFDPSuYaDpX-17" value="" style="endArrow=classic;html=1;rounded=0;entryX=1;entryY=1;entryDx=0;entryDy=-5;entryPerimeter=0;" edge="1" parent="aM9ryv3xv72pqoxQDRHE-5">
          <mxGeometry width="50" height="50" relative="1" as="geometry">
            <mxPoint x="60" y="180" as="sourcePoint" />
            <mxPoint x="55" y="200" as="targetPoint" />
            <Array as="points">
              <mxPoint x="85" y="180" />
              <mxPoint x="85" y="200" />
            </Array>
          </mxGeometry>
        </mxCell>
        <mxCell id="_FRMsnlmzpFDPSuYaDpX-18" value="&lt;font style=&quot;font-size: 7px;&quot;&gt;Сохранить данные о &lt;br&gt;новом пользователе&lt;/font&gt;" style="edgeLabel;html=1;align=center;verticalAlign=middle;resizable=0;points=[];" vertex="1" connectable="0" parent="_FRMsnlmzpFDPSuYaDpX-17">
          <mxGeometry x="-0.1924" y="-1" relative="1" as="geometry">
            <mxPoint x="36" y="5" as="offset" />
          </mxGeometry>
        </mxCell>
        <mxCell id="_FRMsnlmzpFDPSuYaDpX-32" value="" style="html=1;points=[[0,0,0,0,5],[0,1,0,0,-5],[1,0,0,0,5],[1,1,0,0,-5]];perimeter=orthogonalPerimeter;outlineConnect=0;targetShapes=umlLifeline;portConstraint=eastwest;newEdgeStyle={&quot;curved&quot;:0,&quot;rounded&quot;:0};" vertex="1" parent="aM9ryv3xv72pqoxQDRHE-5">
          <mxGeometry x="50" y="310" width="10" height="40" as="geometry" />
        </mxCell>
        <mxCell id="_FRMsnlmzpFDPSuYaDpX-45" value="" style="html=1;points=[[0,0,0,0,5],[0,1,0,0,-5],[1,0,0,0,5],[1,1,0,0,-5]];perimeter=orthogonalPerimeter;outlineConnect=0;targetShapes=umlLifeline;portConstraint=eastwest;newEdgeStyle={&quot;curved&quot;:0,&quot;rounded&quot;:0};" vertex="1" parent="aM9ryv3xv72pqoxQDRHE-5">
          <mxGeometry x="50" y="420" width="10" height="40" as="geometry" />
        </mxCell>
        <mxCell id="_FRMsnlmzpFDPSuYaDpX-46" value="" style="endArrow=classic;html=1;rounded=0;entryX=1;entryY=1;entryDx=0;entryDy=-5;entryPerimeter=0;" edge="1" parent="aM9ryv3xv72pqoxQDRHE-5" source="_FRMsnlmzpFDPSuYaDpX-45">
          <mxGeometry width="50" height="50" relative="1" as="geometry">
            <mxPoint x="65" y="430" as="sourcePoint" />
            <mxPoint x="60" y="450" as="targetPoint" />
            <Array as="points">
              <mxPoint x="90" y="430" />
              <mxPoint x="90" y="450" />
            </Array>
          </mxGeometry>
        </mxCell>
        <mxCell id="_FRMsnlmzpFDPSuYaDpX-47" value="&lt;span style=&quot;font-size: 7px;&quot;&gt;Поиск данных в БД&lt;/span&gt;" style="edgeLabel;html=1;align=center;verticalAlign=middle;resizable=0;points=[];" vertex="1" connectable="0" parent="_FRMsnlmzpFDPSuYaDpX-46">
          <mxGeometry x="-0.1924" y="-1" relative="1" as="geometry">
            <mxPoint x="36" y="5" as="offset" />
          </mxGeometry>
        </mxCell>
        <mxCell id="_FRMsnlmzpFDPSuYaDpX-64" value="" style="html=1;points=[[0,0,0,0,5],[0,1,0,0,-5],[1,0,0,0,5],[1,1,0,0,-5]];perimeter=orthogonalPerimeter;outlineConnect=0;targetShapes=umlLifeline;portConstraint=eastwest;newEdgeStyle={&quot;curved&quot;:0,&quot;rounded&quot;:0};" vertex="1" parent="aM9ryv3xv72pqoxQDRHE-5">
          <mxGeometry x="50" y="540" width="10" height="40" as="geometry" />
        </mxCell>
        <mxCell id="_FRMsnlmzpFDPSuYaDpX-9" value="[нет аккаунта]" style="text;html=1;align=center;verticalAlign=middle;resizable=0;points=[];autosize=1;strokeColor=none;fillColor=none;" vertex="1" parent="1">
          <mxGeometry x="80" y="120" width="100" height="30" as="geometry" />
        </mxCell>
        <mxCell id="_FRMsnlmzpFDPSuYaDpX-10" value="[есть аккаунт]" style="text;html=1;align=center;verticalAlign=middle;resizable=0;points=[];autosize=1;strokeColor=none;fillColor=none;" vertex="1" parent="1">
          <mxGeometry x="80" y="270" width="100" height="30" as="geometry" />
        </mxCell>
        <mxCell id="_FRMsnlmzpFDPSuYaDpX-11" value="Зарегистрироваться" style="endArrow=classic;html=1;rounded=0;" edge="1" parent="1" source="_FRMsnlmzpFDPSuYaDpX-5" target="aM9ryv3xv72pqoxQDRHE-2">
          <mxGeometry x="0.0175" y="10" width="50" height="50" relative="1" as="geometry">
            <mxPoint x="230" y="360" as="sourcePoint" />
            <mxPoint x="220" y="160" as="targetPoint" />
            <Array as="points">
              <mxPoint x="150" y="160" />
            </Array>
            <mxPoint x="1" as="offset" />
          </mxGeometry>
        </mxCell>
        <mxCell id="_FRMsnlmzpFDPSuYaDpX-12" value="" style="endArrow=none;dashed=1;html=1;rounded=0;startArrow=classicThin;startFill=0;" edge="1" parent="1" source="_FRMsnlmzpFDPSuYaDpX-5" target="aM9ryv3xv72pqoxQDRHE-1">
          <mxGeometry width="50" height="50" relative="1" as="geometry">
            <mxPoint x="230" y="360" as="sourcePoint" />
            <mxPoint x="280" y="310" as="targetPoint" />
            <Array as="points">
              <mxPoint x="160" y="200" />
            </Array>
          </mxGeometry>
        </mxCell>
        <mxCell id="_FRMsnlmzpFDPSuYaDpX-13" value="&lt;font style=&quot;font-size: 10px;&quot;&gt;Отправить форму &lt;br&gt;регистрации&lt;/font&gt;" style="text;html=1;align=center;verticalAlign=middle;resizable=0;points=[];autosize=1;strokeColor=none;fillColor=none;" vertex="1" parent="1">
          <mxGeometry x="100" y="160" width="110" height="40" as="geometry" />
        </mxCell>
        <mxCell id="_FRMsnlmzpFDPSuYaDpX-14" value="Заполнить форму" style="endArrow=classic;html=1;rounded=0;" edge="1" parent="1" source="_FRMsnlmzpFDPSuYaDpX-5">
          <mxGeometry x="0.0175" y="10" width="50" height="50" relative="1" as="geometry">
            <mxPoint x="90" y="220" as="sourcePoint" />
            <mxPoint x="226" y="220" as="targetPoint" />
            <Array as="points" />
            <mxPoint x="1" as="offset" />
          </mxGeometry>
        </mxCell>
        <mxCell id="_FRMsnlmzpFDPSuYaDpX-15" value="Отправить данные в БД" style="endArrow=classic;html=1;rounded=0;" edge="1" parent="1" target="aM9ryv3xv72pqoxQDRHE-5">
          <mxGeometry x="0.0175" y="10" width="50" height="50" relative="1" as="geometry">
            <mxPoint x="237" y="220" as="sourcePoint" />
            <mxPoint x="375" y="220" as="targetPoint" />
            <Array as="points" />
            <mxPoint x="1" as="offset" />
          </mxGeometry>
        </mxCell>
        <mxCell id="_FRMsnlmzpFDPSuYaDpX-19" value="" style="endArrow=none;dashed=1;html=1;rounded=0;startArrow=classicThin;startFill=0;" edge="1" parent="1" target="aM9ryv3xv72pqoxQDRHE-6">
          <mxGeometry width="50" height="50" relative="1" as="geometry">
            <mxPoint x="430" y="240" as="sourcePoint" />
            <mxPoint x="572" y="240" as="targetPoint" />
            <Array as="points">
              <mxPoint x="502" y="240" />
            </Array>
          </mxGeometry>
        </mxCell>
        <mxCell id="_FRMsnlmzpFDPSuYaDpX-20" value="Отправить данные" style="edgeLabel;html=1;align=center;verticalAlign=middle;resizable=0;points=[];" vertex="1" connectable="0" parent="_FRMsnlmzpFDPSuYaDpX-19">
          <mxGeometry x="-0.0538" relative="1" as="geometry">
            <mxPoint y="-10" as="offset" />
          </mxGeometry>
        </mxCell>
        <mxCell id="_FRMsnlmzpFDPSuYaDpX-21" value="" style="endArrow=none;dashed=1;html=1;rounded=0;startArrow=classicThin;startFill=0;" edge="1" parent="1" source="aM9ryv3xv72pqoxQDRHE-2">
          <mxGeometry width="50" height="50" relative="1" as="geometry">
            <mxPoint x="240" y="240" as="sourcePoint" />
            <mxPoint x="420" y="240" as="targetPoint" />
            <Array as="points">
              <mxPoint x="302" y="240" />
            </Array>
          </mxGeometry>
        </mxCell>
        <mxCell id="_FRMsnlmzpFDPSuYaDpX-22" value="Разрешить доступ" style="edgeLabel;html=1;align=center;verticalAlign=middle;resizable=0;points=[];" vertex="1" connectable="0" parent="_FRMsnlmzpFDPSuYaDpX-21">
          <mxGeometry x="-0.0538" relative="1" as="geometry">
            <mxPoint y="-10" as="offset" />
          </mxGeometry>
        </mxCell>
        <mxCell id="_FRMsnlmzpFDPSuYaDpX-23" value="" style="endArrow=none;dashed=1;html=1;rounded=0;startArrow=classicThin;startFill=0;" edge="1" parent="1">
          <mxGeometry width="50" height="50" relative="1" as="geometry">
            <mxPoint x="87.5" y="259.66" as="sourcePoint" />
            <mxPoint x="222.5" y="259.66" as="targetPoint" />
            <Array as="points">
              <mxPoint x="102" y="259.66" />
            </Array>
          </mxGeometry>
        </mxCell>
        <mxCell id="_FRMsnlmzpFDPSuYaDpX-24" value="&lt;font style=&quot;font-size: 8px;&quot;&gt;Отобразить интерфейс &lt;br&gt;для обычного пользователя&lt;/font&gt;" style="edgeLabel;html=1;align=center;verticalAlign=middle;resizable=0;points=[];" vertex="1" connectable="0" parent="_FRMsnlmzpFDPSuYaDpX-23">
          <mxGeometry x="-0.0538" relative="1" as="geometry">
            <mxPoint x="3" y="-15" as="offset" />
          </mxGeometry>
        </mxCell>
        <mxCell id="_FRMsnlmzpFDPSuYaDpX-25" value="Войти" style="endArrow=classic;html=1;rounded=0;" edge="1" parent="1">
          <mxGeometry x="0.0175" y="10" width="50" height="50" relative="1" as="geometry">
            <mxPoint x="90" y="310" as="sourcePoint" />
            <mxPoint x="226" y="310" as="targetPoint" />
            <Array as="points" />
            <mxPoint x="1" as="offset" />
          </mxGeometry>
        </mxCell>
        <mxCell id="_FRMsnlmzpFDPSuYaDpX-26" value="" style="endArrow=none;dashed=1;html=1;rounded=0;startArrow=classicThin;startFill=0;" edge="1" parent="1" target="aM9ryv3xv72pqoxQDRHE-2">
          <mxGeometry width="50" height="50" relative="1" as="geometry">
            <mxPoint x="87.5" y="334.65999999999997" as="sourcePoint" />
            <mxPoint x="220" y="335" as="targetPoint" />
            <Array as="points">
              <mxPoint x="159.5" y="334.65999999999997" />
            </Array>
          </mxGeometry>
        </mxCell>
        <mxCell id="_FRMsnlmzpFDPSuYaDpX-27" value="&lt;font style=&quot;font-size: 9px;&quot;&gt;Отобразить форму для входа&lt;/font&gt;" style="edgeLabel;html=1;align=center;verticalAlign=middle;resizable=0;points=[];" vertex="1" connectable="0" parent="_FRMsnlmzpFDPSuYaDpX-26">
          <mxGeometry x="0.1547" y="-1" relative="1" as="geometry">
            <mxPoint x="-12" y="-11" as="offset" />
          </mxGeometry>
        </mxCell>
        <mxCell id="_FRMsnlmzpFDPSuYaDpX-28" value="Ввести данные" style="endArrow=classic;html=1;rounded=0;" edge="1" parent="1">
          <mxGeometry x="0.0175" y="10" width="50" height="50" relative="1" as="geometry">
            <mxPoint x="87.5" y="360" as="sourcePoint" />
            <mxPoint x="223.5" y="360" as="targetPoint" />
            <Array as="points" />
            <mxPoint x="1" as="offset" />
          </mxGeometry>
        </mxCell>
        <mxCell id="_FRMsnlmzpFDPSuYaDpX-31" value="Отправить данные в БД" style="endArrow=classic;html=1;rounded=0;" edge="1" parent="1" source="aM9ryv3xv72pqoxQDRHE-2">
          <mxGeometry x="0.0175" y="10" width="50" height="50" relative="1" as="geometry">
            <mxPoint x="240" y="360" as="sourcePoint" />
            <mxPoint x="622" y="360" as="targetPoint" />
            <Array as="points" />
            <mxPoint x="1" as="offset" />
          </mxGeometry>
        </mxCell>
        <mxCell id="_FRMsnlmzpFDPSuYaDpX-33" value="" style="endArrow=classic;html=1;rounded=0;entryX=1;entryY=1;entryDx=0;entryDy=-5;entryPerimeter=0;" edge="1" parent="1" source="_FRMsnlmzpFDPSuYaDpX-32">
          <mxGeometry width="50" height="50" relative="1" as="geometry">
            <mxPoint x="645" y="360" as="sourcePoint" />
            <mxPoint x="640" y="380" as="targetPoint" />
            <Array as="points">
              <mxPoint x="670" y="360" />
              <mxPoint x="670" y="380" />
            </Array>
          </mxGeometry>
        </mxCell>
        <mxCell id="_FRMsnlmzpFDPSuYaDpX-34" value="&lt;span style=&quot;font-size: 7px;&quot;&gt;Поиск данных в БД&lt;/span&gt;" style="edgeLabel;html=1;align=center;verticalAlign=middle;resizable=0;points=[];" vertex="1" connectable="0" parent="_FRMsnlmzpFDPSuYaDpX-33">
          <mxGeometry x="-0.1924" y="-1" relative="1" as="geometry">
            <mxPoint x="36" y="5" as="offset" />
          </mxGeometry>
        </mxCell>
        <mxCell id="_FRMsnlmzpFDPSuYaDpX-35" value="" style="endArrow=none;dashed=1;html=1;rounded=0;startArrow=classicThin;startFill=0;" edge="1" parent="1" source="_FRMsnlmzpFDPSuYaDpX-37">
          <mxGeometry width="50" height="50" relative="1" as="geometry">
            <mxPoint x="435" y="380" as="sourcePoint" />
            <mxPoint x="630" y="380" as="targetPoint" />
            <Array as="points">
              <mxPoint x="507" y="380" />
            </Array>
          </mxGeometry>
        </mxCell>
        <mxCell id="_FRMsnlmzpFDPSuYaDpX-36" value="Отправить данные" style="edgeLabel;html=1;align=center;verticalAlign=middle;resizable=0;points=[];" vertex="1" connectable="0" parent="_FRMsnlmzpFDPSuYaDpX-35">
          <mxGeometry x="-0.0538" relative="1" as="geometry">
            <mxPoint y="-10" as="offset" />
          </mxGeometry>
        </mxCell>
        <mxCell id="_FRMsnlmzpFDPSuYaDpX-38" value="" style="endArrow=none;dashed=1;html=1;rounded=0;startArrow=classicThin;startFill=0;" edge="1" parent="1" source="aM9ryv3xv72pqoxQDRHE-2">
          <mxGeometry width="50" height="50" relative="1" as="geometry">
            <mxPoint x="240" y="390" as="sourcePoint" />
            <mxPoint x="420" y="390" as="targetPoint" />
            <Array as="points">
              <mxPoint x="307" y="390" />
              <mxPoint x="385" y="390" />
            </Array>
          </mxGeometry>
        </mxCell>
        <mxCell id="_FRMsnlmzpFDPSuYaDpX-39" value="Разрешить доступ" style="edgeLabel;html=1;align=center;verticalAlign=middle;resizable=0;points=[];" vertex="1" connectable="0" parent="_FRMsnlmzpFDPSuYaDpX-38">
          <mxGeometry x="-0.0538" relative="1" as="geometry">
            <mxPoint y="-10" as="offset" />
          </mxGeometry>
        </mxCell>
        <mxCell id="_FRMsnlmzpFDPSuYaDpX-40" value="" style="endArrow=none;dashed=1;html=1;rounded=0;startArrow=classicThin;startFill=0;" edge="1" parent="1">
          <mxGeometry width="50" height="50" relative="1" as="geometry">
            <mxPoint x="87.5" y="400" as="sourcePoint" />
            <mxPoint x="222.5" y="400" as="targetPoint" />
            <Array as="points">
              <mxPoint x="102" y="400" />
            </Array>
          </mxGeometry>
        </mxCell>
        <mxCell id="_FRMsnlmzpFDPSuYaDpX-41" value="&lt;span style=&quot;font-size: 8px;&quot;&gt;Отобразить интерфейс &lt;br&gt;согласно роли&lt;/span&gt;" style="edgeLabel;html=1;align=center;verticalAlign=middle;resizable=0;points=[];" vertex="1" connectable="0" parent="_FRMsnlmzpFDPSuYaDpX-40">
          <mxGeometry x="-0.0538" relative="1" as="geometry">
            <mxPoint x="3" y="-15" as="offset" />
          </mxGeometry>
        </mxCell>
        <mxCell id="_FRMsnlmzpFDPSuYaDpX-42" value="" style="endArrow=classic;html=1;rounded=0;" edge="1" parent="1" source="_FRMsnlmzpFDPSuYaDpX-5" target="aM9ryv3xv72pqoxQDRHE-2">
          <mxGeometry width="50" height="50" relative="1" as="geometry">
            <mxPoint x="220" y="440" as="sourcePoint" />
            <mxPoint x="270" y="390" as="targetPoint" />
            <Array as="points">
              <mxPoint x="160" y="460" />
            </Array>
          </mxGeometry>
        </mxCell>
        <mxCell id="_FRMsnlmzpFDPSuYaDpX-43" value="Посмотреть информацию&lt;br&gt;об участниках" style="edgeLabel;html=1;align=center;verticalAlign=middle;resizable=0;points=[];" vertex="1" connectable="0" parent="_FRMsnlmzpFDPSuYaDpX-42">
          <mxGeometry x="-0.1096" y="1" relative="1" as="geometry">
            <mxPoint x="7" y="-19" as="offset" />
          </mxGeometry>
        </mxCell>
        <mxCell id="_FRMsnlmzpFDPSuYaDpX-44" value="Отправить запрос к БД&amp;nbsp;" style="endArrow=classic;html=1;rounded=0;" edge="1" parent="1" source="aM9ryv3xv72pqoxQDRHE-2" target="aM9ryv3xv72pqoxQDRHE-6">
          <mxGeometry x="0.0175" y="10" width="50" height="50" relative="1" as="geometry">
            <mxPoint x="240" y="460" as="sourcePoint" />
            <mxPoint x="620" y="460" as="targetPoint" />
            <Array as="points">
              <mxPoint x="430" y="470" />
            </Array>
            <mxPoint x="1" as="offset" />
          </mxGeometry>
        </mxCell>
        <mxCell id="_FRMsnlmzpFDPSuYaDpX-48" value="" style="endArrow=none;dashed=1;html=1;rounded=0;startArrow=classicThin;startFill=0;" edge="1" parent="1" source="aM9ryv3xv72pqoxQDRHE-2" target="aM9ryv3xv72pqoxQDRHE-6">
          <mxGeometry width="50" height="50" relative="1" as="geometry">
            <mxPoint x="425" y="490" as="sourcePoint" />
            <mxPoint x="625" y="490" as="targetPoint" />
            <Array as="points">
              <mxPoint x="502" y="490" />
            </Array>
          </mxGeometry>
        </mxCell>
        <mxCell id="_FRMsnlmzpFDPSuYaDpX-49" value="Отправить данные" style="edgeLabel;html=1;align=center;verticalAlign=middle;resizable=0;points=[];" vertex="1" connectable="0" parent="_FRMsnlmzpFDPSuYaDpX-48">
          <mxGeometry x="-0.0538" relative="1" as="geometry">
            <mxPoint y="-10" as="offset" />
          </mxGeometry>
        </mxCell>
        <mxCell id="_FRMsnlmzpFDPSuYaDpX-50" value="" style="endArrow=none;dashed=1;html=1;rounded=0;startArrow=classicThin;startFill=0;" edge="1" parent="1" source="_FRMsnlmzpFDPSuYaDpX-5" target="aM9ryv3xv72pqoxQDRHE-2">
          <mxGeometry width="50" height="50" relative="1" as="geometry">
            <mxPoint x="86.25" y="500" as="sourcePoint" />
            <mxPoint x="223.75" y="500.34000000000003" as="targetPoint" />
            <Array as="points">
              <mxPoint x="160" y="490" />
            </Array>
          </mxGeometry>
        </mxCell>
        <mxCell id="_FRMsnlmzpFDPSuYaDpX-51" value="&lt;font style=&quot;font-size: 9px;&quot;&gt;Отобразить данные на странице&lt;/font&gt;" style="edgeLabel;html=1;align=center;verticalAlign=middle;resizable=0;points=[];" vertex="1" connectable="0" parent="_FRMsnlmzpFDPSuYaDpX-50">
          <mxGeometry x="0.1547" y="-1" relative="1" as="geometry">
            <mxPoint x="-12" y="-11" as="offset" />
          </mxGeometry>
        </mxCell>
        <mxCell id="_FRMsnlmzpFDPSuYaDpX-52" value="" style="endArrow=classic;html=1;rounded=0;" edge="1" parent="1">
          <mxGeometry width="50" height="50" relative="1" as="geometry">
            <mxPoint x="86.5" y="540" as="sourcePoint" />
            <mxPoint x="223.5" y="540" as="targetPoint" />
            <Array as="points">
              <mxPoint x="158.5" y="540" />
            </Array>
          </mxGeometry>
        </mxCell>
        <mxCell id="_FRMsnlmzpFDPSuYaDpX-53" value="Посмотреть информацию&lt;br&gt;об участниках" style="edgeLabel;html=1;align=center;verticalAlign=middle;resizable=0;points=[];" vertex="1" connectable="0" parent="_FRMsnlmzpFDPSuYaDpX-52">
          <mxGeometry x="-0.1096" y="1" relative="1" as="geometry">
            <mxPoint x="7" y="-19" as="offset" />
          </mxGeometry>
        </mxCell>
        <mxCell id="_FRMsnlmzpFDPSuYaDpX-57" value="" style="endArrow=classic;html=1;rounded=0;entryX=1;entryY=1;entryDx=0;entryDy=-5;entryPerimeter=0;" edge="1" parent="1">
          <mxGeometry width="50" height="50" relative="1" as="geometry">
            <mxPoint x="240" y="540" as="sourcePoint" />
            <mxPoint x="240" y="560" as="targetPoint" />
            <Array as="points">
              <mxPoint x="270" y="540" />
              <mxPoint x="270" y="560" />
            </Array>
          </mxGeometry>
        </mxCell>
        <mxCell id="_FRMsnlmzpFDPSuYaDpX-58" value="&lt;span style=&quot;font-size: 7px;&quot;&gt;Обработка выбора&lt;/span&gt;" style="edgeLabel;html=1;align=center;verticalAlign=middle;resizable=0;points=[];" vertex="1" connectable="0" parent="_FRMsnlmzpFDPSuYaDpX-57">
          <mxGeometry x="-0.1924" y="-1" relative="1" as="geometry">
            <mxPoint x="36" y="5" as="offset" />
          </mxGeometry>
        </mxCell>
        <mxCell id="_FRMsnlmzpFDPSuYaDpX-59" value="" style="endArrow=none;dashed=1;html=1;rounded=0;startArrow=classicThin;startFill=0;" edge="1" parent="1">
          <mxGeometry width="50" height="50" relative="1" as="geometry">
            <mxPoint x="87.5" y="570" as="sourcePoint" />
            <mxPoint x="222.5" y="570" as="targetPoint" />
            <Array as="points">
              <mxPoint x="102" y="570" />
            </Array>
          </mxGeometry>
        </mxCell>
        <mxCell id="_FRMsnlmzpFDPSuYaDpX-60" value="&lt;span style=&quot;font-size: 8px;&quot;&gt;Отображение выбора&lt;/span&gt;" style="edgeLabel;html=1;align=center;verticalAlign=middle;resizable=0;points=[];" vertex="1" connectable="0" parent="_FRMsnlmzpFDPSuYaDpX-59">
          <mxGeometry x="-0.0538" relative="1" as="geometry">
            <mxPoint x="3" y="-15" as="offset" />
          </mxGeometry>
        </mxCell>
        <mxCell id="_FRMsnlmzpFDPSuYaDpX-61" value="" style="endArrow=classic;html=1;rounded=0;" edge="1" parent="1" source="_FRMsnlmzpFDPSuYaDpX-5" target="aM9ryv3xv72pqoxQDRHE-2">
          <mxGeometry width="50" height="50" relative="1" as="geometry">
            <mxPoint x="220" y="580" as="sourcePoint" />
            <mxPoint x="270" y="530" as="targetPoint" />
            <Array as="points">
              <mxPoint x="150" y="600" />
            </Array>
          </mxGeometry>
        </mxCell>
        <mxCell id="_FRMsnlmzpFDPSuYaDpX-62" value="&lt;font style=&quot;font-size: 9px;&quot;&gt;Одобрить/&lt;br&gt;Отклонить заявки&lt;/font&gt;" style="edgeLabel;html=1;align=center;verticalAlign=middle;resizable=0;points=[];" vertex="1" connectable="0" parent="_FRMsnlmzpFDPSuYaDpX-61">
          <mxGeometry x="0.1774" y="2" relative="1" as="geometry">
            <mxPoint x="-14" y="-13" as="offset" />
          </mxGeometry>
        </mxCell>
        <mxCell id="_FRMsnlmzpFDPSuYaDpX-63" value="Отправить запрос к БД&amp;nbsp;" style="endArrow=classic;html=1;rounded=0;" edge="1" parent="1" source="aM9ryv3xv72pqoxQDRHE-2" target="aM9ryv3xv72pqoxQDRHE-6">
          <mxGeometry x="0.0175" y="10" width="50" height="50" relative="1" as="geometry">
            <mxPoint x="230" y="600" as="sourcePoint" />
            <mxPoint x="620" y="600" as="targetPoint" />
            <Array as="points">
              <mxPoint x="425" y="600" />
            </Array>
            <mxPoint x="1" as="offset" />
          </mxGeometry>
        </mxCell>
        <mxCell id="_FRMsnlmzpFDPSuYaDpX-65" value="" style="endArrow=classic;html=1;rounded=0;entryX=1;entryY=1;entryDx=0;entryDy=-5;entryPerimeter=0;" edge="1" parent="1">
          <mxGeometry width="50" height="50" relative="1" as="geometry">
            <mxPoint x="640" y="600" as="sourcePoint" />
            <mxPoint x="640" y="620" as="targetPoint" />
            <Array as="points">
              <mxPoint x="670" y="600" />
              <mxPoint x="670" y="620" />
            </Array>
          </mxGeometry>
        </mxCell>
        <mxCell id="_FRMsnlmzpFDPSuYaDpX-66" value="&lt;span style=&quot;font-size: 7px;&quot;&gt;Изменение &lt;br&gt;статуса заявок&lt;/span&gt;" style="edgeLabel;html=1;align=center;verticalAlign=middle;resizable=0;points=[];" vertex="1" connectable="0" parent="_FRMsnlmzpFDPSuYaDpX-65">
          <mxGeometry x="-0.1924" y="-1" relative="1" as="geometry">
            <mxPoint x="36" y="5" as="offset" />
          </mxGeometry>
        </mxCell>
        <mxCell id="_FRMsnlmzpFDPSuYaDpX-67" value="" style="endArrow=none;dashed=1;html=1;rounded=0;startArrow=classicThin;startFill=0;" edge="1" parent="1" source="aM9ryv3xv72pqoxQDRHE-2" target="aM9ryv3xv72pqoxQDRHE-6">
          <mxGeometry width="50" height="50" relative="1" as="geometry">
            <mxPoint x="240" y="620" as="sourcePoint" />
            <mxPoint x="620" y="620" as="targetPoint" />
            <Array as="points">
              <mxPoint x="512" y="620" />
            </Array>
          </mxGeometry>
        </mxCell>
        <mxCell id="_FRMsnlmzpFDPSuYaDpX-68" value="Отправить измененные данные" style="edgeLabel;html=1;align=center;verticalAlign=middle;resizable=0;points=[];" vertex="1" connectable="0" parent="_FRMsnlmzpFDPSuYaDpX-67">
          <mxGeometry x="-0.0538" relative="1" as="geometry">
            <mxPoint x="11" y="-10" as="offset" />
          </mxGeometry>
        </mxCell>
        <mxCell id="_FRMsnlmzpFDPSuYaDpX-71" value="" style="endArrow=none;dashed=1;html=1;rounded=0;startArrow=classicThin;startFill=0;" edge="1" parent="1" source="_FRMsnlmzpFDPSuYaDpX-5" target="aM9ryv3xv72pqoxQDRHE-2">
          <mxGeometry width="50" height="50" relative="1" as="geometry">
            <mxPoint x="87.5" y="630" as="sourcePoint" />
            <mxPoint x="222.5" y="630" as="targetPoint" />
            <Array as="points">
              <mxPoint x="102" y="630" />
            </Array>
          </mxGeometry>
        </mxCell>
        <mxCell id="_FRMsnlmzpFDPSuYaDpX-72" value="&lt;span style=&quot;font-size: 8px;&quot;&gt;Отобразить новые данные&lt;/span&gt;" style="edgeLabel;html=1;align=center;verticalAlign=middle;resizable=0;points=[];" vertex="1" connectable="0" parent="_FRMsnlmzpFDPSuYaDpX-71">
          <mxGeometry x="-0.0538" relative="1" as="geometry">
            <mxPoint x="3" y="-10" as="offset" />
          </mxGeometry>
        </mxCell>
      </root>
    </mxGraphModel>
  </diagram>
</mxfile>
